# xmcd
#
# Track frame offsets:
#	170
#	13402
#	30907
#	48937
#	62070
#	77065
#	89925
#	103477
#	118850
#	136430
#	156140
#	171057
#	191787
#	208085
#	230590
#	241275
#	254282
#	269785
#	287292
#	301690
#	320037
#	332487
#	343897
#
# Disc length: 4738 seconds
#
# Revision: 4
# Processed by: cddbd v1.5.2PL0 Copyright (c) Steve Scherf et al.
# Submitted via: audiograbber 1.83.01
#
DISCID=5c128017
DTITLE=Various Artist - Mississippi Delta Blues: Blow My Blues Away Disc 1
DYEAR=1900
DGENRE=
TTITLE0=Napolean Stickland and the Como Drum Band - Oh Baby
TTITLE1=Napolean Strickland and the Como Drum Band - Como Breakdown
TTITLE2=Johnny Woods and Fred McDowell - Three O'clock In The Morning
TTITLE3=Johnny Woods and Fred McDowell - My Jack Don't Need No Water
TTITLE4=Teddy Williams - Catfish Blues
TTITLE5=Teddy WIlliams - Down Home Blues
TTITLE6=Do-Boy Diamond - Long Haired Doney
TTITLE7=Do-Boy Diamond - Hard Time Blues
TTITLE8=Do-Boy Diamond - The Shaggy Hound
TTITLE9=Do-Boy Diamond - Going Away Blues
TTITLE10=Walter Miller - Stuttgart, Arkansas
TTITLE11=Walter Miller - Vicksburg Blues
TTITLE12=Robert Diggs - Mississippi Goin' To Be My Home
TTITLE13=Robert Diggs - Dangerous Slim
TTITLE14=Robert Diggs - Drink, Drink, Drink
TTITLE15=Rosa Lee Hill - Pork and Beans
TTITLE16=Dewey Corley - Fishing In The Dark
TTITLE17=Dewey Corley - Tri-State Bus
TTITLE18=Tom Turner - Gonna Bring Her Right Back Home
TTITLE19=Peck Curtis and the Blues Rhythm Boys - The Death Of Sonny Boy Williamso
TTITLE19=n
TTITLE20=Robert Nighthawk and the Blues Rhythm Boys - Nighthawk Boogie
TTITLE21=Robert Nighthawk and the Blues Rhythm Boys - You Call Yourself A Cadilla
TTITLE21=c
TTITLE22=Robert Nighthawk and the Blues Rhythm Boys - Blues Before Midnight
EXTD=Arhoolie CD 401\nRecorded by George Mitchell in 1967 and 1968.\n          
EXTD=                                                  \n            
EXTD=          
EXTT0=
EXTT1=
EXTT2=
EXTT3=
EXTT4=
EXTT5=
EXTT6=
EXTT7=
EXTT8=
EXTT9=
EXTT10=
EXTT11=
EXTT12=
EXTT13=
EXTT14=
EXTT15=
EXTT16=
EXTT17=
EXTT18=
EXTT19=
EXTT20=
EXTT21=
EXTT22=
PLAYORDER=
